HIERARCHY
ROOT reference
{
  OFFSET 0 0 0
  CHANNELS 6 Xposition Yposition Zposition Zrotation Xrotation Yrotation
  JOINT Hips
  {
    OFFSET 0 97.8064 0
    CHANNELS 6 Xposition Yposition Zposition Zrotation Xrotation Yrotation
    JOINT ToSpine
    {
      OFFSET -2.69724 7.43032 -0.144315
      CHANNELS 6 Xposition Yposition Zposition Zrotation Xrotation Yrotation
      JOINT Spine
      {
        OFFSET -0.0310711 10.7595 1.96963
        CHANNELS 6 Xposition Yposition Zposition Zrotation Xrotation Yrotation
        JOINT Spine1
        {
          OFFSET 13.1342 3.43533 0.764692
          CHANNELS 6 Xposition Yposition Zposition Zrotation Xrotation Yrotation
          JOINT Neck
          {
            OFFSET 29.8703 7.82586 -0.130764
            CHANNELS 6 Xposition Yposition Zposition Zrotation Xrotation Yrotation
            JOINT Head
            {
              OFFSET 9.52751 0.295786 -0.907742
              CHANNELS 6 Xposition Yposition Zposition Zrotation Xrotation Yrotation
              End Site
              {
                OFFSET 16.4037 0.713936 2.7358
              }
            }
          }
          JOINT LeftShoulder
          {
            OFFSET 27.5574 4.95586 2.47156
            CHANNELS 6 Xposition Yposition Zposition Zrotation Xrotation Yrotation
            JOINT LeftArm
            {
              OFFSET 1.20734 -0.998971 20.1238
              CHANNELS 6 Xposition Yposition Zposition Zrotation Xrotation Yrotation
              JOINT LeftForeArm
              {
                OFFSET 26.8049 -0.0536703 -0.155908
                CHANNELS 6 Xposition Yposition Zposition Zrotation Xrotation Yrotation
                JOINT LeftHand
                {
                  OFFSET 26.6817 0 0.320147
                  CHANNELS 6 Xposition Yposition Zposition Zrotation Xrotation Yrotation
                  End Site
                  {
                    OFFSET 18.6119 0 0.382219
                  }
                }
              }
            }
          }
          JOINT RightShoulder
          {
            OFFSET 27.5927 4.71444 -2.65209
            CHANNELS 6 Xposition Yposition Zposition Zrotation Xrotation Yrotation
            JOINT RightArm
            {
              OFFSET 2.83739 -1.17114 -18.7564
              CHANNELS 6 Xposition Yposition Zposition Zrotation Xrotation Yrotation
              JOINT RightForeArm
              {
                OFFSET 28.839 -0.0548439 1.22491
                CHANNELS 6 Xposition Yposition Zposition Zrotation Xrotation Yrotation
                JOINT RightHand
                {
                  OFFSET 26.5114 0 -0.101894
                  CHANNELS 6 Xposition Yposition Zposition Zrotation Xrotation Yrotation
                  End Site
                  {
                    OFFSET 18.2168 0 0
                  }
                }
              }
            }
          }
        }
      }
    }
    JOINT LeftUpLeg
    {
      OFFSET -4.76168 -1.9167 -10.2353
      CHANNELS 6 Xposition Yposition Zposition Zrotation Xrotation Yrotation
      JOINT LeftLeg
      {
        OFFSET 2.55951 -42.0585 -8.02213
        CHANNELS 6 Xposition Yposition Zposition Zrotation Xrotation Yrotation
        JOINT LeftFoot
        {
          OFFSET 3.16357 -42.5282 -3.95426
          CHANNELS 6 Xposition Yposition Zposition Zrotation Xrotation Yrotation
          JOINT LeftToeBase
          {
            OFFSET 0.346054 -6.02161 12.8035
            CHANNELS 6 Xposition Yposition Zposition Zrotation Xrotation Yrotation
            End Site
            {
              OFFSET 0.134235 -1.35082 5.13018
            }
          }
        }
      }
    }
    JOINT RightUpLeg
    {
      OFFSET -4.94151 -1.41743 10.6446
      CHANNELS 6 Xposition Yposition Zposition Zrotation Xrotation Yrotation
      JOINT RightLeg
      {
        OFFSET -2.56294 -42.0364 -7.94377
        CHANNELS 6 Xposition Yposition Zposition Zrotation Xrotation Yrotation
        JOINT RightFoot
        {
          OFFSET -3.0952 -42.555 -4.02241
          CHANNELS 6 Xposition Yposition Zposition Zrotation Xrotation Yrotation
          JOINT RightToeBase
          {
            OFFSET -0.0828122 -6.13587 12.8035
            CHANNELS 6 Xposition Yposition Zposition Zrotation Xrotation Yrotation
            End Site
            {
              OFFSET -0.131328 -1.35082 5.13018
            }
          }
        }
      }
    }
  }
}
MOTION
Frames:	5
Frame Time:	0.0333333
0 0 0 0 0 -0 -1.30825 86.3594 -37.5678 74.4027 -25.1579 -0.919822 -2.69724 7.43032 -0.144315 -70.1915 -2.38542e-015 88.8779 -0.0310711 10.7595 1.96963 105.298 74.0179 -18.4925 13.1342 3.43533 0.764692 3.36742 21.6862 10.8964 29.8703 7.82586 -0.130764 -125.5 33.7527 156.633 9.52751 0.295786 -0.907742 162.791 75.6655 -132.413 27.5574 4.95586 2.47156 1.2505 -7.22112 -16.2397 1.20734 -0.998971 20.1238 -53.3247 35.6939 -109.987 26.8049 -0.0536703 -0.155908 4.53282 -3.24675 -124.167 26.6817 -4.26326e-014 0.320147 3.18055e-015 1.98785e-015 -0 27.5927 4.71444 -2.65209 -1.7442 5.48821 46.3341 2.83739 -1.17114 -18.7564 -100.574 -0.660043 74.5404 28.839 -0.0548439 1.22491 4.92117 -6.30037 38.5133 26.5114 2.84217e-014 -0.101894 0.586762 -0.00142588 0.0646651 -4.76168 -1.9167 -10.2353 -36.5513 19.5563 91.0805 2.55951 -42.0585 -8.02213 -9.73302 68.6649 -3.52539 3.16357 -42.5282 -3.95426 0.742189 -22.8229 -1.88592 0.346054 -6.02161 12.8035 6.04251 -14.5882 18.7961 -4.94151 -1.41743 10.6446 -41.1957 -22.4512 78.6452 -2.56294 -42.0364 -7.94377 0.936145 36.5886 -4.41882 -3.0952 -42.555 -4.02241 -0.38256 6.31402 -0.267271 -0.0828122 -6.13587 12.8035 1.24487 -11.917 3.43712 
0 0 0 0 0 -0 -1.37786 86.3813 -37.3825 74.2682 -25.1109 -1.08732 -2.69724 7.43032 -0.144315 -70.1915 -1.59028e-015 88.8779 -0.0310711 10.7595 1.96963 105.714 73.9777 -19.2403 13.1342 3.43533 0.764692 2.96609 21.6443 10.9957 29.8703 7.82586 -0.130764 -124.931 33.578 155.606 9.52751 0.295786 -0.907742 165.105 76.0931 -133.892 27.5574 4.95586 2.47156 1.23544 -7.37963 -16.0567 1.20734 -0.998971 20.1238 -52.1517 35.3519 -111.404 26.8049 -0.0536703 -0.155908 3.98627 -2.74881 -123.081 26.6817 -2.84217e-014 0.320147 3.18055e-015 1.59028e-015 3.18055e-015 27.5927 4.71444 -2.65209 -1.71847 5.37206 46.5564 2.83739 -1.17114 -18.7564 -101.89 -0.179576 74.1216 28.839 -0.0548439 1.22491 6.48278 -7.54501 41.1343 26.5114 4.26326e-014 -0.101894 0.586762 -0.00142588 0.0646651 -4.76168 -1.9167 -10.2353 -36.5349 19.6746 91.1534 2.55951 -42.0585 -8.02213 -9.83771 68.5508 -4.37958 3.16357 -42.5282 -3.95426 0.494151 -22.4871 -1.878 0.346054 -6.02161 12.8035 6.4879 -15.2774 19.4306 -4.94151 -1.41743 10.6446 -40.4683 -22.2247 79.6785 -2.56294 -42.0364 -7.94377 0.96411 37.543 -4.50488 -3.0952 -42.555 -4.02241 0.0940758 6.40504 -0.361394 -0.0828122 -6.13587 12.8035 1.348 -12.337 2.66519 
0 0 0 0 0 -0 -1.52989 86.5013 -37.0489 74.2263 -25.241 -1.41578 -2.69724 7.43032 -0.144315 -70.1915 -6.36111e-015 88.8779 -0.0310711 10.7595 1.96963 105.713 74.1068 -20.1444 13.1342 3.43533 0.764692 2.61299 21.532 11.7825 29.8703 7.82586 -0.130764 -124.119 33.758 156.055 9.52751 0.295786 -0.907742 163.692 76.0136 -131.421 27.5574 4.95586 2.47156 1.21192 -7.83645 -16.4364 1.20734 -0.998971 20.1238 -52.1701 35.1512 -112.954 26.8049 -0.0536703 -0.155908 4.15809 -2.65098 -121.063 26.6817 -2.84217e-014 0.320147 -3.18055e-015 3.18055e-015 -2.38542e-015 27.5927 4.71444 -2.65209 -1.713 5.41948 46.1855 2.83739 -1.17114 -18.7564 -103.85 0.163022 73.9574 28.839 -0.0548439 1.22491 7.57824 -7.60475 45.3495 26.5114 2.84217e-014 -0.101894 0.586762 -0.00142588 0.0646651 -4.76168 -1.9167 -10.2353 -36.8275 19.6706 91.1727 2.55951 -42.0585 -8.02213 -10.0284 68.1576 -6.38408 3.16357 -42.5282 -3.95426 0.63762 -21.2264 -1.76752 0.346054 -6.02161 12.8035 7.1838 -16.3298 22.858 -4.94151 -1.41743 10.6446 -39.1145 -22.4144 80.7584 -2.56294 -42.0364 -7.94377 1.20178 39.4963 -3.74923 -3.0952 -42.555 -4.02241 -0.507968 7.01772 -0.296926 -0.0828122 -6.13587 12.8035 1.42605 -13.2789 4.20098 
0 0 0 0 0 -0 -1.7133 86.5107 -36.5444 74.2287 -25.9246 -1.46773 -2.69724 7.43032 -0.144315 -70.1915 -3.18055e-015 88.8779 -0.0310711 10.7595 1.96963 105.592 74.2365 -20.4259 13.1342 3.43533 0.764692 2.76324 21.5362 12.2595 29.8703 7.82586 -0.130764 -123.888 34.053 156.778 9.52751 0.295786 -0.907742 162.229 75.9274 -129.702 27.5574 4.95586 2.47156 1.2042 -7.91726 -16.3331 1.20734 -0.998971 20.1238 -52.9938 34.3841 -116.446 26.8049 -0.0536703 -0.155908 5.95766 -3.30264 -117.738 26.6817 -4.26326e-014 0.320147 -6.36111e-015 -1.59028e-015 7.95139e-016 27.5927 4.71444 -2.65209 -1.66689 5.37758 45.6446 2.83739 -1.17114 -18.7564 -107.098 0.0407211 74.994 28.839 -0.0548439 1.22491 7.66783 -6.4964 50.146 26.5114 1.42109e-014 -0.101894 0.586762 -0.00142588 0.0646651 -4.76168 -1.9167 -10.2353 -37.274 20.4292 91.4367 2.55951 -42.0585 -8.02213 -9.60747 67.6871 -5.93317 3.16357 -42.5282 -3.95426 0.377155 -21.0619 -1.77325 0.346054 -6.02161 12.8035 7.28339 -16.4495 21.6575 -4.94151 -1.41743 10.6446 -36.9098 -21.9122 83.1674 -2.56294 -42.0364 -7.94377 1.94838 42.7921 0.0106469 -3.0952 -42.555 -4.02241 -0.875044 7.85356 -0.273622 -0.0828122 -6.13587 12.8035 1.69164 -14.4628 2.00584 
0 0 0 0 0 -0 -1.96048 86.5396 -35.7863 73.9548 -26.6365 -1.67175 -2.69724 7.43032 -0.144315 -70.1915 -4.77083e-015 88.8779 -0.0310711 10.7595 1.96963 103.588 74.3986 -18.318 13.1342 3.43533 0.764692 3.34234 21.609 12.0435 29.8703 7.82586 -0.130764 -123.872 34.2459 157.786 9.52751 0.295786 -0.907742 161.807 75.7889 -129.334 27.5574 4.95586 2.47156 1.17611 -8.3286 -16.3599 1.20734 -0.998971 20.1238 -55.1265 32.5365 -121.295 26.8049 -0.0536703 -0.155908 8.98822 -4.1448 -113.589 26.6817 -2.84217e-014 0.320147 -3.18055e-015 -1.98785e-015 -7.95139e-016 27.5927 4.71444 -2.65209 -1.5892 5.32974 44.5276 2.83739 -1.17114 -18.7564 -110.674 -0.515146 77.2848 28.839 -0.0548439 1.22491 4.85714 -3.42714 55.2624 26.5114 4.26326e-014 -0.101894 0.586762 -0.00142588 0.0646651 -4.76168 -1.9167 -10.2353 -37.5747 21.3038 91.6421 2.55951 -42.0585 -8.02213 -8.9993 67.0912 -5.07755 3.16357 -42.5282 -3.95426 -0.573008 -21.7047 -1.88659 0.346054 -6.02161 12.8035 6.70816 -15.588 19.5408 -4.94151 -1.41743 10.6446 -35.0514 -21.7044 85.1022 -2.56294 -42.0364 -7.94377 2.56993 44.0758 4.47584 -3.0952 -42.555 -4.02241 -4.3265 9.40604 0.332766 -0.0828122 -6.13587 12.8035 1.98229 -16.4163 2.7634 
